HIERARCHY
ROOT Hips
{
    OFFSET 0.000000 0.000000 0.000000
    CHANNELS 6 Xposition Yposition Zposition Zrotation Xrotation Yrotation
    JOINT Spine
    {
        OFFSET -0.000000 8.104110 0.000000
        CHANNELS 3 Zrotation Xrotation Yrotation
        JOINT Spine1
        {
            OFFSET -0.000000 22.417536 0.000000
            CHANNELS 3 Zrotation Xrotation Yrotation
            JOINT Neck
            {
                OFFSET -0.000000 22.325472 2.029588
                CHANNELS 3 Zrotation Xrotation Yrotation
                JOINT Head
                {
                    OFFSET -0.000000 13.836284 -1.976612
                    CHANNELS 3 Zrotation Xrotation Yrotation
                    End Site
                    {
                        OFFSET -0.000000 24.707651 0.000000
                    }
                }
            }
            JOINT LeftShoulder
            {
                OFFSET 3.973640 20.379602 -0.279950
                CHANNELS 3 Zrotation Xrotation Yrotation
                JOINT LeftArm
                {
                    OFFSET 11.493720 0.000000 0.000000
                    CHANNELS 3 Zrotation Xrotation Yrotation
                    JOINT LeftForeArm
                    {
                        OFFSET 31.336695 0.000000 0.000000
                        CHANNELS 3 Zrotation Xrotation Yrotation
                        JOINT LeftHand
                        {
                            OFFSET 29.043781 0.000000 0.000000
                            CHANNELS 3 Zrotation Xrotation Yrotation
                            End Site
                            {
                                OFFSET 14.824592 0.000000 0.000000
                            }
                        }
                    }
                }
            }
            JOINT RightShoulder
            {
                OFFSET -3.921018 20.379602 -0.279950
                CHANNELS 3 Zrotation Xrotation Yrotation
                JOINT RightArm
                {
                    OFFSET -11.493720 0.000000 0.000000
                    CHANNELS 3 Zrotation Xrotation Yrotation
                    JOINT RightForeArm
                    {
                        OFFSET -31.336695 0.000000 0.000000
                        CHANNELS 3 Zrotation Xrotation Yrotation
                        JOINT RightHand
                        {
                            OFFSET -29.043781 0.000000 0.000000
                            CHANNELS 3 Zrotation Xrotation Yrotation
                            End Site
                            {
                                OFFSET -14.824592 0.000000 0.000000
                            }
                        }
                    }
                }
            }
        }
    }
    JOINT LeftUpLeg
    {
        OFFSET 9.883060 0.000000 0.000000
        CHANNELS 3 Zrotation Xrotation Yrotation
        JOINT LeftLeg
        {
            OFFSET -0.000000 -43.587502 0.000000
            CHANNELS 3 Zrotation Xrotation Yrotation
            JOINT LeftFoot
            {
                OFFSET -0.000000 -41.501083 0.000000
                CHANNELS 3 Zrotation Xrotation Yrotation
                JOINT LeftToeBase
                {
                    OFFSET -0.000000 -6.423989 14.824592
                    CHANNELS 3 Zrotation Xrotation Yrotation
                    End Site
                    {
                        OFFSET -0.000000 0.000000 3.953224
                    }
                }
            }
        }
    }
    JOINT RightUpLeg
    {
        OFFSET -9.883060 0.000000 0.000000
        CHANNELS 3 Zrotation Xrotation Yrotation
        JOINT RightLeg
        {
            OFFSET -0.000000 -43.587502 0.000000
            CHANNELS 3 Zrotation Xrotation Yrotation
            JOINT RightFoot
            {
                OFFSET -0.000000 -41.501083 0.000000
                CHANNELS 3 Zrotation Xrotation Yrotation
                JOINT RightToeBase
                {
                    OFFSET -0.000000 -6.423989 14.824592
                    CHANNELS 3 Zrotation Xrotation Yrotation
                    End Site
                    {
                        OFFSET -0.000000 0.000000 3.953224
                    }
                }
            }
        }
    }
}
MOTION
Frames:    11
Frame Time:    0.008333
-7.524224    96.074791    117.996155    -0.408820    2.251654    -173.764221    -0.840630    -10.420880    -0.502789    0.275724    7.659429    -0.444683    -0.278243    13.065761    -1.807333    1.381125    8.629254    -1.779579    16.974087    -3.122679    -1.842531    -12.233673    -1.824936    1.291768    -0.582928    3.772457    3.161135    0.171067    3.778636    -6.616422    -18.765779    0.412388    -5.979303    9.996121    5.370332    3.011391    2.667547    -1.845790    -3.586446    4.294308    -1.440909    8.559423    -1.118742    11.277436    -9.789256    -0.089731    -5.149101    -0.615049    -4.267148    3.718450    10.964306    0.000000    0.000000    0.000000    -0.751056    14.339153    12.615867    2.002322    -7.104290    0.332367    0.703113    1.115370    -19.984888    0.000000    0.000000    0.000000    
-7.522440    96.077057    118.008362    -0.405385    2.257028    -173.760437    -0.846007    -10.431196    -0.501746    0.302113    7.688811    -0.444995    -0.302574    13.098589    -1.820983    1.357712    8.598747    -1.794350    16.952679    -3.126902    -1.849056    -12.244752    -1.798707    1.291300    -0.607613    3.752772    3.153807    0.134863    3.761618    -6.662400    -18.829103    0.359132    -5.969518    10.045362    5.381599    2.994249    2.668658    -1.819439    -3.599653    4.333441    -1.410991    8.567230    -1.111771    11.265247    -9.767990    -0.093162    -5.127947    -0.677537    -4.288695    3.705195    11.001871    0.000000    0.000000    0.000000    -0.748608    14.332805    12.632029    2.003469    -7.111784    0.123730    0.702503    1.153154    -19.784870    0.000000    0.000000    0.000000    
-7.521155    96.077339    118.019722    -0.402489    2.267516    -173.753311    -0.833339    -10.426182    -0.499861    0.283446    7.697765    -0.442927    -0.345106    13.159954    -1.815671    1.419562    8.535858    -1.782749    16.961447    -3.110034    -1.852230    -12.266951    -1.794917    1.278523    -0.614058    3.745349    3.144572    0.080307    3.757488    -6.689262    -18.814478    0.368912    -5.967465    10.040252    5.380443    2.997994    2.670470    -1.814075    -3.605927    4.365700    -1.403468    8.554303    -1.094358    11.232703    -9.838343    -0.132041    -5.100829    -0.282896    -4.241949    3.760884    10.659806    0.000000    0.000000    0.000000    -0.741967    14.327592    12.648209    2.000674    -7.074069    0.327356    0.721985    1.103065    -20.002571    0.000000    0.000000    0.000000    
-7.522912    96.076805    118.033600    -0.412137    2.261653    -173.744247    -0.838120    -10.433617    -0.492195    0.272176    7.706341    -0.434139    -0.328783    13.151151    -1.821331    1.387007    8.587982    -1.791958    16.967901    -3.126466    -1.869837    -12.278033    -1.781515    1.262518    -0.649724    3.738199    3.157604    0.033309    3.754124    -6.732759    -18.794033    0.395367    -5.981087    10.023150    5.316123    3.000727    2.682192    -1.788153    -3.615500    4.369875    -1.376757    8.552570    -1.098823    11.210194    -9.861538    -0.142076    -5.046947    -0.653614    -4.256391    3.657777    11.047056    0.000000    0.000000    0.000000    -0.756601    14.311258    12.652118    2.006057    -7.061068    0.323919    0.699489    1.088672    -19.990570    0.000000    0.000000    0.000000    
-7.520648    96.074333    118.044197    -0.407877    2.271482    -173.734238    -0.828638    -10.426241    -0.494794    0.269625    7.704102    -0.437387    -0.334630    13.284947    -1.794670    1.353549    8.354139    -1.763963    16.988783    -3.156967    -1.899218    -12.341743    -1.734479    1.290627    -0.619704    3.723647    3.155771    -0.056517    3.744019    -6.765221    -18.786222    0.406973    -5.971152    10.009525    5.345583    3.006449    2.679688    -1.796384    -3.630034    4.386065    -1.383874    8.542391    -1.094948    11.207464    -9.853852    -0.143701    -5.047145    -0.624491    -4.237750    3.662905    11.006992    0.000000    0.000000    0.000000    -0.784317    14.485737    14.021408    1.818986    -7.445870    -0.946244    0.732520    1.283356    -20.094099    0.000000    0.000000    0.000000    
-7.521622    96.072411    118.057869    -0.418480    2.275967    -173.722687    -0.826742    -10.415524    -0.494194    0.252348    7.708549    -0.435908    -0.340611    13.358617    -1.815321    1.348798    8.260331    -1.784744    16.990164    -3.169522    -1.897162    -12.368499    -1.770314    1.315123    -0.589586    3.710927    3.064117    -0.131200    3.734365    -6.734458    -18.776278    0.392236    -5.980096    10.000319    5.357017    3.006671    2.677803    -1.791747    -3.634942    4.406557    -1.378223    8.527894    -1.124294    11.231840    -9.798221    -0.100437    -5.096348    -0.689805    -4.257325    3.692734    11.011531    0.000000    0.000000    0.000000    -0.816951    14.578918    14.767728    1.717102    -7.649722    -1.632116    0.738021    1.372908    -20.157507    0.000000    0.000000    0.000000    
-7.522950    96.070137    118.068062    -0.422511    2.286421    -173.704926    -0.828108    -10.415088    -0.498036    0.247142    7.733202    -0.439348    -0.330596    13.258896    -1.805980    1.302827    8.439960    -1.780307    16.997244    -3.166344    -1.902016    -12.382315    -1.824345    1.302130    -0.605964    3.701472    3.067605    -0.127173    3.725147    -6.735996    -18.771870    0.389623    -5.975315    9.995739    5.336740    2.990331    2.676847    -1.790138    -3.632344    4.397311    -1.377664    8.520135    -1.135760    11.224455    -9.800877    -0.089950    -5.075902    -0.674376    -4.256632    3.675123    10.997460    0.000000    0.000000    0.000000    -0.817028    14.584651    14.720667    1.719764    -7.642722    -1.575657    0.738703    1.363611    -20.168629    0.000000    0.000000    0.000000    
-7.523654    96.069511    118.080605    -0.433532    2.291286    -173.692398    -0.850328    -10.413870    -0.491395    0.262544    7.757209    -0.431786    -0.348207    13.228806    -1.800550    1.325674    8.490714    -1.773047    17.007980    -3.190346    -1.920481    -12.414834    -1.844470    1.293861    -0.609734    3.693852    3.060860    -0.073384    3.714403    -6.731701    -18.784782    0.374359    -6.002479    10.001533    5.340577    2.983591    2.667231    -1.783484    -3.627881    4.417615    -1.370751    8.498454    -1.146602    11.214083    -9.824339    -0.090621    -5.059116    -0.704505    -4.252545    3.671633    11.040759    0.000000    0.000000    0.000000    -0.828349    14.586355    14.780335    1.713519    -7.651620    -1.677012    0.725849    1.362559    -20.141047    0.000000    0.000000    0.000000    
-7.524747    96.068848    118.091415    -0.436784    2.294397    -173.682846    -0.844346    -10.399513    -0.491334    0.250102    7.738610    -0.431443    -0.325485    13.233731    -1.805836    1.270236    8.537311    -1.783616    17.007378    -3.200833    -1.939181    -12.435470    -1.880928    1.297964    -0.594680    3.715766    3.064418    -0.057602    3.735018    -6.715612    -18.778740    0.397705    -6.006275    10.008338    5.354846    2.989857    2.643575    -1.778045    -3.633344    4.401060    -1.367112    8.500583    -1.144218    11.170420    -9.883601    -0.111750    -4.977159    -0.717808    -4.221101    3.600965    11.090204    0.000000    0.000000    0.000000    -0.816846    14.500791    14.112560    1.814240    -7.464877    -1.048312    0.705593    1.276573    -20.074554    0.000000    0.000000    0.000000    
-7.524712    96.068520    118.104004    -0.443084    2.293823    -173.657043    -0.848100    -10.397076    -0.501339    0.243608    7.747064    -0.440735    0.059624    13.175589    -1.827575    0.641213    8.681929    -1.861364    16.994638    -3.212911    -1.947621    -12.435365    -1.897312    1.298611    -0.575546    3.714856    3.059611    -0.063869    3.733920    -6.692168    -18.778547    0.381070    -6.010334    10.004680    5.326337    2.989370    2.642708    -1.759185    -3.639227    4.381939    -1.349763    8.495635    -1.166827    11.171371    -9.828192    -0.083864    -5.028236    -0.429189    -4.215446    3.719693    10.742838    0.000000    0.000000    0.000000    -0.838588    14.590487    14.830611    1.711995    -7.668926    -1.720824    0.728542    1.347590    -20.170879    0.000000    0.000000    0.000000    
-7.527664    96.069847    118.117073    -0.451609    2.290277    -173.648407    -0.856247    -10.384797    -0.499789    0.234232    7.729304    -0.437992    0.092347    13.161963    -1.825500    0.602054    8.738918    -1.863099    17.002365    -3.186504    -1.958938    -12.447045    -1.919455    1.278526    -0.571661    3.699658    3.067521    -0.022324    3.716231    -6.661204    -18.758795    0.379066    -6.008069    9.993568    5.380050    2.968657    2.637498    -1.784141    -3.620892    4.355920    -1.377325    8.492333    -1.184044    11.140473    -9.837459    -0.075183    -4.987023    -0.454173    -4.220238    3.696113    10.752262    0.000000    0.000000    0.000000    -0.846114    14.570175    14.795758    1.709672    -7.642790    -1.675542    0.730981    1.337147    -20.163715    0.000000    0.000000    0.000000    
